<?xml version="1.0" standalone="no"?>
<!DOCTYPE svg PUBLIC "-//W3C//DTD SVG 20010904//EN"
 "http://www.w3.org/TR/2001/REC-SVG-20010904/DTD/svg10.dtd">
<svg version="1.0" xmlns="http://www.w3.org/2000/svg"
 width="512.000000pt" height="512.000000pt" viewBox="0 0 512.000000 512.000000"
 preserveAspectRatio="xMidYMid meet">
<metadata>
Created by potrace 1.14, written by Peter Selinger 2001-2017
</metadata>
<g transform="translate(0.000000,512.000000) scale(0.100000,-0.100000)"
fill="#000000" stroke="none">
<path d="M300 5098 c-109 -19 -215 -100 -267 -206 l-28 -57 0 -2275 0 -2275
28 -57 c49 -100 146 -180 247 -204 46 -10 4469 -12 4538 -2 134 21 228 105
291 261 8 20 10 636 8 2290 l-2 2262 -30 59 c-51 101 -145 178 -245 202 -43
10 -4481 12 -4540 2z m4393 -377 c4 0 16 -10 27 -21 20 -20 20 -33 20 -1549
l0 -1530 -89 92 c-49 51 -103 108 -121 127 -18 19 -105 110 -193 203 -88 92
-171 180 -185 195 -14 15 -99 105 -190 200 -133 138 -173 174 -203 182 -99 27
-177 -37 -193 -158 -3 -24 -12 -82 -20 -130 -8 -48 -18 -105 -21 -127 -3 -23
-8 -52 -10 -65 -7 -34 -28 -164 -40 -242 -2 -18 -14 -89 -25 -158 -24 -144
-27 -162 -35 -210 -3 -19 -7 -46 -10 -60 -5 -28 -11 -64 -20 -130 -8 -56 -15
-67 -29 -48 -6 8 -32 39 -57 69 -26 30 -75 88 -110 130 -124 147 -154 182
-164 193 -6 6 -55 65 -110 131 -55 66 -105 125 -111 130 -5 6 -44 50 -85 100
-41 49 -150 180 -244 290 -93 111 -188 223 -210 250 -22 26 -47 55 -55 64 -9
9 -48 55 -88 103 -40 47 -84 93 -97 102 -31 21 -103 23 -137 5 -14 -8 -102
-87 -194 -176 -93 -89 -196 -187 -229 -219 -33 -31 -145 -139 -250 -239 -104
-100 -212 -204 -240 -230 -27 -26 -133 -127 -235 -225 -283 -273 -354 -339
-359 -334 -2 2 -4 733 -4 1624 0 1725 -2 1641 46 1659 15 6 4242 8 4270 2z"/>
<path d="M3662 4264 c-160 -37 -288 -137 -355 -277 -102 -212 -67 -436 93
-597 113 -114 232 -162 390 -156 108 4 185 27 266 80 368 245 295 799 -124
936 -74 25 -198 31 -270 14z"/>
</g>
</svg>
